<?xml version="1.0" encoding="UTF-8" standalone="no"?>
<!DOCTYPE svg PUBLIC "-//W3C//DTD SVG 1.1//EN" "http://www.w3.org/Graphics/SVG/1.1/DTD/svg11.dtd">
<!-- Created with Vectornator (http://vectornator.io/) -->
<svg height="100%" stroke-miterlimit="10" style="fill-rule:nonzero;clip-rule:evenodd;stroke-linecap:round;stroke-linejoin:round;" version="1.1" viewBox="0 0 508 159" width="100%" xml:space="preserve" xmlns="http://www.w3.org/2000/svg" xmlns:xlink="http://www.w3.org/1999/xlink">
<defs/>
<g id="Untitled">
<g opacity="1">
<path d="M80.4084 61.1598L138.052 61.1598L138.052 107.014L80.4084 107.014L80.4084 61.1598Z" fill="#ffffff" fill-rule="nonzero" opacity="1" stroke="#23579f" stroke-linecap="butt" stroke-linejoin="round" stroke-width="5"/>
<path d="M99 36.4C75.3 41.7 59.4 64.5 62.9 88.2C64.3 97.2 69.4 108 75.3 114.3L79.7 119L71.1 124L62.5 129L87.5 129C106.1 129 114.1 128.6 118.8 127.5C144.1 121.5 159.8 97.8 154.6 73.2C151.5 58.6 142.8 46.9 130.1 40.5C119.6 35.3 109.9 34 99 36.4ZM117.8 67.9C119.8 69 124.4 72.6 128 75.9L134.5 82L128 88.1C119.8 95.7 114.9 98.4 108.9 98.3C103 98.2 98.1 95.5 90 88L83.5 82L90 76C93.6 72.6 98.1 69.1 100 68C104.7 65.4 112.9 65.4 117.8 67.9Z" fill="#23579f" fill-rule="nonzero" opacity="1" stroke="none"/>
<path d="M98.5544 81.7055C98.5544 76.3992 103.243 72.0975 109.027 72.0975C114.811 72.0975 119.5 76.3992 119.5 81.7055C119.5 87.0119 114.811 91.3135 109.027 91.3135C103.243 91.3135 98.5544 87.0119 98.5544 81.7055Z" fill="#ffebeb" fill-opacity="0" fill-rule="nonzero" opacity="1" stroke="#23579f" stroke-linecap="butt" stroke-linejoin="round" stroke-width="5"/>
<path d="M111.819 78.5922C111.819 78.5758 111.872 78.5624 111.939 78.5624C112.005 78.5624 112.06 78.5758 112.06 78.5922C112.06 78.6088 112.005 78.6221 111.939 78.6221C111.872 78.6221 111.819 78.6088 111.819 78.5922Z" fill="#28292c" fill-rule="nonzero" opacity="0" stroke="#23579f" stroke-linecap="butt" stroke-linejoin="round" stroke-width="3"/>
<path d="M110.594 78.0995C110.594 78.7192 111.19 79.2216 111.926 79.2216C112.662 79.2216 113.259 78.7192 113.259 78.0995C113.259 77.4797 112.662 76.9773 111.926 76.9773C111.19 76.9773 110.594 77.4797 110.594 78.0995Z" fill="#23579f" fill-rule="nonzero" opacity="1" stroke="#23579f" stroke-linecap="butt" stroke-linejoin="round" stroke-width="0.1"/>
<path d="M111.921 77.1001C111.921 77.6405 112.329 78.0787 112.833 78.0787C113.337 78.0787 113.746 77.6405 113.746 77.1001C113.746 76.5596 113.337 76.1214 112.833 76.1214C112.329 76.1214 111.921 76.5596 111.921 77.1001Z" fill="#ffffff" fill-rule="nonzero" opacity="1" stroke="#ffffff" stroke-linecap="butt" stroke-linejoin="round" stroke-width="0.1"/>
<path d="M112.669 77.5608C112.669 77.4863 112.746 77.4259 112.84 77.4259C112.934 77.4259 113.01 77.4863 113.01 77.5608C113.01 77.6353 112.934 77.6957 112.84 77.6957C112.746 77.6957 112.669 77.6353 112.669 77.5608Z" fill="#ff0000" fill-opacity="0" fill-rule="nonzero" opacity="0" stroke="#ffffff" stroke-linecap="butt" stroke-linejoin="round" stroke-width="1"/>
<path d="M111.055 78.5984C111.055 78.6108 111.069 78.6209 111.085 78.6209C111.101 78.6209 111.114 78.6108 111.114 78.5984C111.114 78.586 111.101 78.5759 111.085 78.5759C111.069 78.5759 111.055 78.586 111.055 78.5984Z" fill="#28292c" fill-rule="nonzero" opacity="0" stroke="#23579f" stroke-linecap="butt" stroke-linejoin="round" stroke-width="3"/>
</g>
</g>
<g id="Ebene-1">
<g fill="#23579f" opacity="1" stroke="none">
<path d="M182.384 75.1431L184.596 75.1431L184.596 66.0442L184.636 66.0442L187.689 73.0511L189.531 73.0511L192.584 66.0442L192.634 66.0442L192.634 75.1431L194.846 75.1431L194.846 60.5489L192.754 60.5489L188.65 70.0581L184.466 60.5489L182.384 60.5489L182.384 75.1431Z"/>
<path d="M200.392 75.1431L202.614 75.1431L202.614 62.5208L206.608 62.5208L206.608 60.5489L196.398 60.5489L196.398 62.5208L200.392 62.5208L200.392 75.1431Z"/>
<path d="M211.463 75.1431L213.184 75.1431L218.009 60.5489L215.667 60.5489L212.343 71.6597L212.303 71.6597L208.99 60.5489L206.648 60.5489L211.463 75.1431Z"/>
<path d="M219.57 75.1431L228.89 75.1431L228.89 73.0511L221.783 73.0511L221.783 68.7669L227.849 68.7669L227.849 66.805L221.783 66.805L221.783 62.6409L228.89 62.6409L228.89 60.5489L219.57 60.5489L219.57 75.1431Z"/>
<path d="M235.436 70.5086L241.602 70.5086L241.602 68.4165L235.436 68.4165L235.436 70.5086Z"/>
<path d="M249.139 75.1431L251.351 75.1431L251.351 66.0442L251.392 66.0442L254.445 73.0511L256.286 73.0511L259.339 66.0442L259.389 66.0442L259.389 75.1431L261.601 75.1431L261.601 60.5489L259.509 60.5489L255.405 70.0581L251.221 60.5489L249.139 60.5489L249.139 75.1431Z"/>
<path d="M267.257 69.918L269.369 63.5418L269.409 63.5418L271.521 69.918L267.257 69.918ZM273.283 75.1431L275.615 75.1431L270.31 60.5489L268.458 60.5489L263.153 75.1431L265.495 75.1431L266.616 71.8799L272.152 71.8799L273.283 75.1431Z"/>
<path d="M281.541 69.1973L284.514 69.1973L284.514 69.958C284.501 70.8723 284.214 71.6096 283.653 72.1702C283.092 72.7574 282.382 73.0511 281.521 73.0511C281 73.0511 280.553 72.9409 280.18 72.7207C279.799 72.5339 279.492 72.2903 279.259 71.99C278.972 71.6764 278.782 71.266 278.688 70.7588C278.581 70.2517 278.528 69.2807 278.528 67.846C278.528 66.4112 278.581 65.4336 278.688 64.9131C278.782 64.4193 278.972 64.0156 279.259 63.7019C279.492 63.4016 279.799 63.1514 280.18 62.9512C280.553 62.7577 281 62.6542 281.521 62.6409C282.228 62.6542 282.829 62.8578 283.323 63.2515C283.796 63.6652 284.123 64.1657 284.304 64.753L286.646 64.753C286.412 63.5318 285.852 62.5074 284.964 61.68C284.077 60.8592 282.929 60.4421 281.521 60.4287C280.373 60.4421 279.416 60.7157 278.648 61.2495C277.867 61.7767 277.3 62.3773 276.946 63.0513C276.726 63.405 276.563 63.8688 276.456 64.4427C276.356 65.0165 276.306 66.151 276.306 67.846C276.306 69.5143 276.356 70.642 276.456 71.2293C276.509 71.5429 276.576 71.8032 276.656 72.01C276.743 72.2102 276.84 72.4204 276.946 72.6407C277.3 73.3146 277.867 73.9086 278.648 74.4224C279.416 74.9562 280.373 75.2365 281.521 75.2632C283.009 75.2365 284.244 74.7327 285.225 73.7517C286.199 72.7641 286.699 71.5396 286.726 70.0782L286.726 67.1053L281.541 67.1053L281.541 69.1973Z"/>
<path d="M289.309 75.1431L294.263 75.1431C295.358 75.1431 296.282 74.9029 297.036 74.4224C297.797 73.9753 298.391 73.4081 298.818 72.7207C298.978 72.4605 299.115 72.2102 299.228 71.97C299.335 71.7231 299.415 71.4428 299.468 71.1292C299.582 70.5086 299.639 69.4142 299.639 67.846C299.639 66.3712 299.602 65.3335 299.529 64.7329C299.435 64.1324 299.212 63.5585 298.858 63.0113C297.87 61.383 296.389 60.5622 294.414 60.5489L289.309 60.5489L289.309 75.1431ZM291.521 62.6409L294.163 62.6409C295.284 62.6142 296.152 63.0246 296.766 63.8721C297.066 64.2124 297.256 64.6562 297.336 65.2034C297.396 65.7506 297.426 66.6581 297.426 67.9261C297.426 69.2273 297.396 70.1149 297.336 70.5886C297.27 71.0691 297.113 71.4662 296.866 71.7798C296.305 72.6273 295.404 73.0511 294.163 73.0511L291.521 73.0511L291.521 62.6409Z"/>
<path d="M302.221 75.1431L311.54 75.1431L311.54 73.0511L304.433 73.0511L304.433 68.7669L310.499 68.7669L310.499 66.805L304.433 66.805L304.433 62.6409L311.54 62.6409L311.54 60.5489L302.221 60.5489L302.221 75.1431Z"/>
<path d="M313.622 75.1431L319.768 75.1431C320.916 75.1431 321.874 74.7594 322.641 73.992C323.415 73.2579 323.809 72.2603 323.822 70.9991C323.822 70.2383 323.632 69.5343 323.252 68.887C322.845 68.2597 322.244 67.8426 321.45 67.6358L321.45 67.5957C321.87 67.3955 322.224 67.172 322.511 66.9251C322.798 66.6915 323.018 66.4446 323.172 66.1844C323.472 65.6372 323.615 65.0633 323.602 64.4627C323.602 63.2882 323.238 62.3439 322.511 61.6299C321.79 60.9226 320.713 60.5622 319.278 60.5489L313.622 60.5489L313.622 75.1431ZM319.238 68.6668C320.059 68.6801 320.659 68.897 321.039 69.3174C321.42 69.7445 321.61 70.2583 321.61 70.8589C321.61 71.4462 321.42 71.9533 321.039 72.3804C320.659 72.8142 320.059 73.0377 319.238 73.0511L315.834 73.0511L315.834 68.6668L319.238 68.6668ZM319.028 62.5208C319.835 62.5341 320.429 62.731 320.809 63.1114C321.196 63.5184 321.39 64.0156 321.39 64.6028C321.39 65.19 321.196 65.6772 320.809 66.0642C320.429 66.4846 319.835 66.6949 319.028 66.6949L315.834 66.6949L315.834 62.5208L319.028 62.5208Z"/>
<path d="M325.854 70.1983C325.868 71.7331 326.375 72.951 327.376 73.8518C328.357 74.7794 329.578 75.2499 331.039 75.2632C332.527 75.2499 333.759 74.7794 334.733 73.8518C335.7 72.951 336.198 71.7331 336.224 70.1983L336.224 60.5489L334.012 60.5489L334.012 69.958C333.999 70.9523 333.719 71.7097 333.171 72.2303C332.611 72.7775 331.9 73.0511 331.039 73.0511C330.178 73.0511 329.474 72.7775 328.927 72.2303C328.367 71.7097 328.08 70.9523 328.066 69.958L328.066 60.5489L325.854 60.5489L325.854 70.1983Z"/>
<path d="M341.249 62.5208L344.713 62.5208C345.42 62.5208 345.96 62.6709 346.334 62.9712C346.808 63.3116 347.052 63.8621 347.065 64.6228C347.065 65.2568 346.861 65.7906 346.454 66.2244C346.041 66.6915 345.42 66.9317 344.592 66.9451L341.249 66.9451L341.249 62.5208ZM339.037 75.1431L341.249 75.1431L341.249 68.907L344.072 68.907L347.085 75.1431L349.717 75.1431L346.334 68.6668C348.189 67.9527 349.13 66.6048 349.157 64.6228C349.117 63.2748 348.633 62.2372 347.706 61.5098C346.938 60.8692 345.947 60.5489 344.733 60.5489L339.037 60.5489L339.037 75.1431Z"/>
<path d="M356.274 69.1973L359.247 69.1973L359.247 69.958C359.233 70.8723 358.946 71.6096 358.386 72.1702C357.825 72.7574 357.115 73.0511 356.254 73.0511C355.733 73.0511 355.286 72.9409 354.913 72.7207C354.532 72.5339 354.225 72.2903 353.992 71.99C353.705 71.6764 353.515 71.266 353.421 70.7588C353.314 70.2517 353.261 69.2807 353.261 67.846C353.261 66.4112 353.314 65.4336 353.421 64.9131C353.515 64.4193 353.705 64.0156 353.992 63.7019C354.225 63.4016 354.532 63.1514 354.913 62.9512C355.286 62.7577 355.733 62.6542 356.254 62.6409C356.961 62.6542 357.562 62.8578 358.056 63.2515C358.529 63.6652 358.856 64.1657 359.037 64.753L361.379 64.753C361.145 63.5318 360.585 62.5074 359.697 61.68C358.81 60.8592 357.662 60.4421 356.254 60.4287C355.106 60.4421 354.148 60.7157 353.381 61.2495C352.6 61.7767 352.033 62.3773 351.679 63.0513C351.459 63.405 351.296 63.8688 351.189 64.4427C351.089 65.0165 351.039 66.151 351.039 67.846C351.039 69.5143 351.089 70.642 351.189 71.2293C351.242 71.5429 351.309 71.8032 351.389 72.01C351.476 72.2102 351.573 72.4204 351.679 72.6407C352.033 73.3146 352.6 73.9086 353.381 74.4224C354.148 74.9562 355.106 75.2365 356.254 75.2632C357.742 75.2365 358.976 74.7327 359.957 73.7517C360.932 72.7641 361.432 71.5396 361.459 70.0782L361.459 67.1053L356.274 67.1053L356.274 69.1973Z"/>
<path d="M371.429 75.1431L373.651 75.1431L373.651 62.5208L377.645 62.5208L377.645 60.5489L367.435 60.5489L367.435 62.5208L371.429 62.5208L371.429 75.1431Z"/>
<path d="M378.335 67.846C378.335 69.5143 378.385 70.642 378.486 71.2293C378.539 71.5429 378.606 71.8032 378.686 72.01C378.772 72.2102 378.869 72.4204 378.976 72.6407C379.33 73.3146 379.897 73.9086 380.678 74.4224C381.445 74.9562 382.403 75.2365 383.55 75.2632C384.712 75.2365 385.679 74.9562 386.453 74.4224C387.221 73.9086 387.775 73.3146 388.115 72.6407C388.362 72.287 388.532 71.8165 388.625 71.2293C388.712 70.642 388.756 69.5143 388.756 67.846C388.756 66.151 388.712 65.0165 388.625 64.4427C388.532 63.8688 388.362 63.405 388.115 63.0513C387.775 62.3773 387.221 61.7767 386.453 61.2495C385.679 60.7157 384.712 60.4421 383.55 60.4287C382.403 60.4421 381.445 60.7157 380.678 61.2495C379.897 61.7767 379.33 62.3773 378.976 63.0513C378.756 63.405 378.592 63.8688 378.486 64.4427C378.385 65.0165 378.335 66.151 378.335 67.846ZM380.558 67.846C380.558 66.4112 380.611 65.4336 380.718 64.9131C380.811 64.4193 381.001 64.0156 381.288 63.7019C381.522 63.4016 381.829 63.1514 382.209 62.9512C382.583 62.7577 383.03 62.6542 383.55 62.6409C384.078 62.6542 384.535 62.7577 384.922 62.9512C385.289 63.1514 385.582 63.4016 385.803 63.7019C386.09 64.0156 386.286 64.4193 386.393 64.9131C386.493 65.4336 386.543 66.4112 386.543 67.846C386.543 69.2807 386.493 70.2517 386.393 70.7588C386.286 71.266 386.09 71.6764 385.803 71.99C385.582 72.2903 385.289 72.5339 384.922 72.7207C384.535 72.9409 384.078 73.0511 383.55 73.0511C383.03 73.0511 382.583 72.9409 382.209 72.7207C381.829 72.5339 381.522 72.2903 381.288 71.99C381.001 71.6764 380.811 71.266 380.718 70.7588C380.611 70.2517 380.558 69.2807 380.558 67.846Z"/>
<path d="M390.838 67.846C390.838 69.5143 390.888 70.642 390.988 71.2293C391.041 71.5429 391.108 71.8032 391.188 72.01C391.275 72.2102 391.371 72.4204 391.478 72.6407C391.832 73.3146 392.399 73.9086 393.18 74.4224C393.947 74.9562 394.905 75.2365 396.053 75.2632C397.214 75.2365 398.181 74.9562 398.956 74.4224C399.723 73.9086 400.277 73.3146 400.617 72.6407C400.864 72.287 401.034 71.8165 401.128 71.2293C401.214 70.642 401.258 69.5143 401.258 67.846C401.258 66.151 401.214 65.0165 401.128 64.4427C401.034 63.8688 400.864 63.405 400.617 63.0513C400.277 62.3773 399.723 61.7767 398.956 61.2495C398.181 60.7157 397.214 60.4421 396.053 60.4287C394.905 60.4421 393.947 60.7157 393.18 61.2495C392.399 61.7767 391.832 62.3773 391.478 63.0513C391.258 63.405 391.095 63.8688 390.988 64.4427C390.888 65.0165 390.838 66.151 390.838 67.846ZM393.06 67.846C393.06 66.4112 393.113 65.4336 393.22 64.9131C393.313 64.4193 393.504 64.0156 393.79 63.7019C394.024 63.4016 394.331 63.1514 394.711 62.9512C395.085 62.7577 395.532 62.6542 396.053 62.6409C396.58 62.6542 397.037 62.7577 397.424 62.9512C397.791 63.1514 398.085 63.4016 398.305 63.7019C398.592 64.0156 398.789 64.4193 398.895 64.9131C398.996 65.4336 399.046 66.4112 399.046 67.846C399.046 69.2807 398.996 70.2517 398.895 70.7588C398.789 71.266 398.592 71.6764 398.305 71.99C398.085 72.2903 397.791 72.5339 397.424 72.7207C397.037 72.9409 396.58 73.0511 396.053 73.0511C395.532 73.0511 395.085 72.9409 394.711 72.7207C394.331 72.5339 394.024 72.2903 393.79 71.99C393.504 71.6764 393.313 71.266 393.22 70.7588C393.113 70.2517 393.06 69.2807 393.06 67.846Z"/>
<path d="M403.84 75.1431L413.159 75.1431L413.159 73.0511L406.052 73.0511L406.052 60.5489L403.84 60.5489L403.84 75.1431Z"/>
<path d="M420.156 75.1431L422.368 75.1431L422.368 68.907L428.434 68.907L428.434 66.9451L422.368 66.9451L422.368 62.6409L429.475 62.6409L429.475 60.5489L420.156 60.5489L420.156 75.1431Z"/>
<path d="M430.666 67.846C430.666 69.5143 430.716 70.642 430.817 71.2293C430.87 71.5429 430.937 71.8032 431.017 72.01C431.104 72.2102 431.2 72.4204 431.307 72.6407C431.661 73.3146 432.228 73.9086 433.009 74.4224C433.776 74.9562 434.734 75.2365 435.882 75.2632C437.043 75.2365 438.01 74.9562 438.784 74.4224C439.552 73.9086 440.106 73.3146 440.446 72.6407C440.693 72.287 440.863 71.8165 440.956 71.2293C441.043 70.642 441.087 69.5143 441.087 67.846C441.087 66.151 441.043 65.0165 440.956 64.4427C440.863 63.8688 440.693 63.405 440.446 63.0513C440.106 62.3773 439.552 61.7767 438.784 61.2495C438.01 60.7157 437.043 60.4421 435.882 60.4287C434.734 60.4421 433.776 60.7157 433.009 61.2495C432.228 61.7767 431.661 62.3773 431.307 63.0513C431.087 63.405 430.923 63.8688 430.817 64.4427C430.716 65.0165 430.666 66.151 430.666 67.846ZM432.889 67.846C432.889 66.4112 432.942 65.4336 433.049 64.9131C433.142 64.4193 433.332 64.0156 433.619 63.7019C433.853 63.4016 434.16 63.1514 434.54 62.9512C434.914 62.7577 435.361 62.6542 435.882 62.6409C436.409 62.6542 436.866 62.7577 437.253 62.9512C437.62 63.1514 437.914 63.4016 438.134 63.7019C438.421 64.0156 438.618 64.4193 438.724 64.9131C438.824 65.4336 438.874 66.4112 438.874 67.846C438.874 69.2807 438.824 70.2517 438.724 70.7588C438.618 71.266 438.421 71.6764 438.134 71.99C437.914 72.2903 437.62 72.5339 437.253 72.7207C436.866 72.9409 436.409 73.0511 435.882 73.0511C435.361 73.0511 434.914 72.9409 434.54 72.7207C434.16 72.5339 433.853 72.2903 433.619 71.99C433.332 71.6764 433.142 71.266 433.049 70.7588C432.942 70.2517 432.889 69.2807 432.889 67.846Z"/>
<path d="M445.881 62.5208L449.345 62.5208C450.052 62.5208 450.593 62.6709 450.966 62.9712C451.44 63.3116 451.684 63.8621 451.697 64.6228C451.697 65.2568 451.493 65.7906 451.086 66.2244C450.673 66.6915 450.052 66.9317 449.225 66.9451L445.881 66.9451L445.881 62.5208ZM443.669 75.1431L445.881 75.1431L445.881 68.907L448.704 68.907L451.717 75.1431L454.35 75.1431L450.966 68.6668C452.821 67.9527 453.762 66.6048 453.789 64.6228C453.749 63.2748 453.265 62.2372 452.338 61.5098C451.57 60.8692 450.579 60.5489 449.365 60.5489L443.669 60.5489L443.669 75.1431Z"/>
</g>
<g fill="#23579f" opacity="1" stroke="none">
<path d="M190.414 107.217L193.018 107.217L200.314 85.1481L196.772 85.1481L191.746 101.95L191.686 101.95L186.675 85.1481L183.133 85.1481L190.414 107.217Z"/>
<path d="M202.675 107.217L206.02 107.217L206.02 85.1481L202.675 85.1481L202.675 107.217Z"/>
<path d="M210.667 107.217L218.16 107.217C219.815 107.217 221.212 106.854 222.353 106.128C223.503 105.452 224.401 104.594 225.047 103.554C225.289 103.161 225.496 102.782 225.668 102.419C225.829 102.046 225.95 101.622 226.031 101.148C226.202 100.209 226.288 98.5542 226.288 96.1828C226.288 93.9527 226.233 92.3835 226.122 91.4753C225.98 90.5671 225.642 89.6992 225.107 88.8718C223.614 86.4095 221.374 85.1683 218.387 85.1481L210.667 85.1481L210.667 107.217ZM214.012 88.3117L218.008 88.3117C219.704 88.2713 221.016 88.892 221.944 90.1735C222.398 90.6882 222.686 91.3592 222.807 92.1867C222.898 93.0142 222.943 94.3866 222.943 96.3039C222.943 98.2717 222.898 99.6138 222.807 100.33C222.706 101.057 222.469 101.657 222.095 102.132C221.248 103.413 219.885 104.054 218.008 104.054L214.012 104.054L214.012 88.3117Z"/>
<path d="M230.193 107.217L244.286 107.217L244.286 104.054L233.539 104.054L233.539 97.5754L242.711 97.5754L242.711 94.6086L233.539 94.6086L233.539 88.3117L244.286 88.3117L244.286 85.1481L230.193 85.1481L230.193 107.217Z"/>
<path d="M246.677 96.1828C246.677 98.7056 246.753 100.411 246.904 101.299C246.985 101.773 247.086 102.167 247.207 102.48C247.338 102.782 247.485 103.1 247.646 103.433C248.181 104.452 249.039 105.351 250.219 106.128C251.38 106.935 252.828 107.359 254.564 107.399C256.319 107.359 257.783 106.935 258.953 106.128C260.114 105.351 260.951 104.452 261.466 103.433C261.839 102.898 262.097 102.187 262.238 101.299C262.369 100.411 262.435 98.7056 262.435 96.1828C262.435 93.6197 262.369 91.9042 262.238 91.0363C262.097 90.1685 261.839 89.4671 261.466 88.9323C260.951 87.9131 260.114 87.0049 258.953 86.2077C257.783 85.4004 256.319 84.9867 254.564 84.9665C252.828 84.9867 251.38 85.4004 250.219 86.2077C249.039 87.0049 248.181 87.9131 247.646 88.9323C247.313 89.4671 247.066 90.1685 246.904 91.0363C246.753 91.9042 246.677 93.6197 246.677 96.1828ZM250.038 96.1828C250.038 94.0132 250.118 92.5349 250.28 91.7477C250.421 91.001 250.709 90.3905 251.143 89.9162C251.496 89.4621 251.96 89.0837 252.535 88.7809C253.1 88.4883 253.776 88.3319 254.564 88.3117C255.361 88.3319 256.052 88.4883 256.637 88.7809C257.192 89.0837 257.636 89.4621 257.969 89.9162C258.403 90.3905 258.701 91.001 258.862 91.7477C259.014 92.5349 259.089 94.0132 259.089 96.1828C259.089 98.3524 259.014 99.8207 258.862 100.588C258.701 101.355 258.403 101.975 257.969 102.449C257.636 102.904 257.192 103.272 256.637 103.554C256.052 103.887 255.361 104.054 254.564 104.054C253.776 104.054 253.1 103.887 252.535 103.554C251.96 103.272 251.496 102.904 251.143 102.449C250.709 101.975 250.421 101.355 250.28 100.588C250.118 99.8207 250.038 98.3524 250.038 96.1828Z"/>
<path d="M266.34 107.217L280.432 107.217L280.432 104.054L269.685 104.054L269.685 97.5754L278.858 97.5754L278.858 94.6086L269.685 94.6086L269.685 88.3117L280.432 88.3117L280.432 85.1481L266.34 85.1481L266.34 107.217Z"/>
<path d="M289.56 98.9982L294.388 107.217L298.172 107.217L291.421 95.9103L297.733 85.1481L293.964 85.1481L289.56 92.8073L285.155 85.1481L281.371 85.1481L287.698 95.9103L280.947 107.217L284.716 107.217L289.56 98.9982Z"/>
<path d="M303.546 88.3117L308.375 88.3117C309.283 88.2915 310.08 88.4984 310.766 88.9323C311.22 89.1947 311.573 89.5529 311.826 90.007C312.068 90.5116 312.189 91.1322 312.189 91.8688C312.189 92.7569 311.891 93.5642 311.296 94.2907C310.67 95.0375 309.737 95.4209 308.496 95.4411L303.546 95.4411L303.546 88.3117ZM300.201 107.217L303.546 107.217L303.546 98.6047L308.632 98.6047C310.902 98.5643 312.628 97.8378 313.809 96.425C314.959 95.0829 315.534 93.5944 315.534 91.9597C315.534 90.7487 315.307 89.6992 314.853 88.8112C314.419 87.8929 313.854 87.1865 313.158 86.6921C312.33 86.0362 311.513 85.6022 310.706 85.3903C309.898 85.2289 309.061 85.1481 308.193 85.1481L300.201 85.1481L300.201 107.217Z"/>
<path d="M318.577 107.217L332.669 107.217L332.669 104.054L321.922 104.054L321.922 97.5754L331.095 97.5754L331.095 94.6086L321.922 94.6086L321.922 88.3117L332.669 88.3117L332.669 85.1481L318.577 85.1481L318.577 107.217Z"/>
<path d="M339.163 88.1301L344.4 88.1301C345.47 88.1301 346.287 88.3571 346.852 88.8112C347.569 89.3259 347.937 90.1584 347.957 91.3088C347.957 92.2674 347.649 93.0747 347.034 93.7307C346.408 94.437 345.47 94.8003 344.218 94.8205L339.163 94.8205L339.163 88.1301ZM335.817 107.217L339.163 107.217L339.163 97.7873L343.431 97.7873L347.987 107.217L351.968 107.217L346.852 97.424C349.657 96.3443 351.08 94.3059 351.121 91.3088C351.06 89.2704 350.329 87.7012 348.926 86.6013C347.765 85.6325 346.267 85.1481 344.43 85.1481L335.817 85.1481L335.817 107.217Z"/>
<path d="M354.723 107.217L358.068 107.217L358.068 85.1481L354.723 85.1481L354.723 107.217Z"/>
<path d="M362.715 107.217L366.061 107.217L366.061 93.4582L366.121 93.4582L370.738 104.054L373.523 104.054L378.14 93.4582L378.215 93.4582L378.215 107.217L381.561 107.217L381.561 85.1481L378.397 85.1481L372.191 99.528L365.864 85.1481L362.715 85.1481L362.715 107.217Z"/>
<path d="M386.208 107.217L400.3 107.217L400.3 104.054L389.553 104.054L389.553 97.5754L398.726 97.5754L398.726 94.6086L389.553 94.6086L389.553 88.3117L400.3 88.3117L400.3 85.1481L386.208 85.1481L386.208 107.217Z"/>
<path d="M403.448 107.217L406.794 107.217L406.794 91.5358L406.854 91.5358L416.829 107.217L419.993 107.217L419.993 85.1481L416.648 85.1481L416.648 100.83L416.587 100.83L406.597 85.1481L403.448 85.1481L403.448 107.217Z"/>
<path d="M428.394 107.217L431.754 107.217L431.754 88.1301L437.794 88.1301L437.794 85.1481L422.354 85.1481L422.354 88.1301L428.394 88.1301L428.394 107.217Z"/>
<path d="M440.427 101.859L438.232 104.372C440.584 106.39 443.394 107.399 446.664 107.399C451.719 107.339 454.303 105.199 454.414 100.981C454.414 99.417 453.924 98.0446 452.945 96.864C451.956 95.6631 450.428 94.9214 448.359 94.6389C447.309 94.5077 446.482 94.3916 445.877 94.2907C444.787 94.0889 443.995 93.7256 443.5 93.2009C443.006 92.6862 442.758 92.111 442.758 91.4753C442.779 90.4157 443.147 89.6185 443.863 89.0837C444.55 88.569 445.407 88.3117 446.437 88.3117C448.425 88.3521 450.246 88.9172 451.901 90.007L453.763 87.2521C451.734 85.7889 449.348 85.027 446.603 84.9665C444.322 84.9867 442.562 85.5821 441.32 86.7526C440.039 87.9333 439.398 89.4873 439.398 91.4147C439.398 93.0192 439.908 94.3815 440.927 95.5017C441.916 96.5915 443.359 97.2928 445.256 97.6057C446.315 97.757 447.289 97.8933 448.177 98.0143C450.115 98.3474 451.073 99.3363 451.053 100.981C451.013 102.989 449.56 104.014 446.694 104.054C444.272 104.034 442.183 103.302 440.427 101.859Z"/>
</g>
</g>
</svg>
