<?xml version="1.0" encoding="UTF-8" standalone="no"?>
<!DOCTYPE svg PUBLIC "-//W3C//DTD SVG 1.1//EN" "http://www.w3.org/Graphics/SVG/1.1/DTD/svg11.dtd">
<!-- Created with Vectornator (http://vectornator.io/) -->
<svg height="100%" stroke-miterlimit="10" style="fill-rule:nonzero;clip-rule:evenodd;stroke-linecap:round;stroke-linejoin:round;" version="1.1" viewBox="0 0 101.683 100.658" width="100%" xml:space="preserve" xmlns="http://www.w3.org/2000/svg" xmlns:vectornator="http://vectornator.io" xmlns:xlink="http://www.w3.org/1999/xlink">
<defs/>
<g id="Untitled" vectornator:layerName="Untitled">
<g opacity="1">
<path d="M23.7509 29.4057L81.3945 29.4057L81.3945 75.2599L23.7509 75.2599L23.7509 29.4057Z" fill="#ffffff" fill-rule="nonzero" opacity="1" stroke="#23579f" stroke-linecap="butt" stroke-linejoin="round" stroke-width="5"/>
<path d="M42.3425 4.64591C18.6425 9.94591 2.74249 32.7459 6.24249 56.4459C7.64249 65.4459 12.7425 76.2459 18.6425 82.5459L23.0425 87.2459L14.4425 92.2459L5.84249 97.2459L30.8425 97.2459C49.4425 97.2459 57.4425 96.8459 62.1425 95.7459C87.4425 89.7459 103.142 66.0459 97.9425 41.4459C94.8425 26.8459 86.1425 15.1459 73.4425 8.74591C62.9425 3.54591 53.2425 2.24591 42.3425 4.64591ZM61.1425 36.1459C63.1425 37.2459 67.7425 40.8459 71.3425 44.1459L77.8425 50.2459L71.3425 56.3459C63.1425 63.9459 58.2425 66.6459 52.2425 66.5459C46.3425 66.4459 41.4425 63.7459 33.3425 56.2459L26.8425 50.2459L33.3425 44.2459C36.9425 40.8459 41.4425 37.3459 43.3425 36.2459C48.0425 33.6459 56.2425 33.6459 61.1425 36.1459Z" fill="#23579f" fill-rule="nonzero" opacity="1" stroke="none"/>
<path d="M41.8969 49.9514C41.8969 44.6451 46.5855 40.3434 52.3695 40.3434C58.1535 40.3434 62.8425 44.6451 62.8425 49.9514C62.8425 55.2578 58.1535 59.5594 52.3695 59.5594C46.5855 59.5594 41.8969 55.2578 41.8969 49.9514Z" fill="#ffebeb" fill-opacity="0" fill-rule="nonzero" opacity="1" stroke="#23579f" stroke-linecap="butt" stroke-linejoin="round" stroke-width="5"/>
<path d="M55.1615 46.8381C55.1615 46.8217 55.2145 46.8083 55.2815 46.8083C55.3475 46.8083 55.4025 46.8217 55.4025 46.8381C55.4025 46.8547 55.3475 46.868 55.2815 46.868C55.2145 46.868 55.1615 46.8547 55.1615 46.8381Z" fill="#28292c" fill-rule="nonzero" opacity="0" stroke="#23579f" stroke-linecap="butt" stroke-linejoin="round" stroke-width="3"/>
<path d="M53.9365 46.3454C53.9365 46.9651 54.5325 47.4675 55.2685 47.4675C56.0045 47.4675 56.6015 46.9651 56.6015 46.3454C56.6015 45.7256 56.0045 45.2232 55.2685 45.2232C54.5325 45.2232 53.9365 45.7256 53.9365 46.3454Z" fill="#23579f" fill-rule="nonzero" opacity="1" stroke="#23579f" stroke-linecap="butt" stroke-linejoin="round" stroke-width="0.1"/>
<path d="M55.2635 45.346C55.2635 45.8864 55.6715 46.3246 56.1755 46.3246C56.6795 46.3246 57.0885 45.8864 57.0885 45.346C57.0885 44.8055 56.6795 44.3673 56.1755 44.3673C55.6715 44.3673 55.2635 44.8055 55.2635 45.346Z" fill="#ffffff" fill-rule="nonzero" opacity="1" stroke="#ffffff" stroke-linecap="butt" stroke-linejoin="round" stroke-width="0.1"/>
<path d="M56.0115 45.8067C56.0115 45.7322 56.0885 45.6718 56.1825 45.6718C56.2765 45.6718 56.3525 45.7322 56.3525 45.8067C56.3525 45.8812 56.2765 45.9416 56.1825 45.9416C56.0885 45.9416 56.0115 45.8812 56.0115 45.8067Z" fill="#ff0000" fill-opacity="0" fill-rule="nonzero" opacity="0" stroke="#ffffff" stroke-linecap="butt" stroke-linejoin="round" stroke-width="1"/>
<path d="M54.3975 46.8443C54.3975 46.8567 54.4115 46.8668 54.4275 46.8668C54.4435 46.8668 54.4565 46.8567 54.4565 46.8443C54.4565 46.8319 54.4435 46.8218 54.4275 46.8218C54.4115 46.8218 54.3975 46.8319 54.3975 46.8443Z" fill="#28292c" fill-rule="nonzero" opacity="0" stroke="#23579f" stroke-linecap="butt" stroke-linejoin="round" stroke-width="3"/>
</g>
</g>
</svg>
