<?xml version="1.0" encoding="UTF-8" standalone="no"?>
<!DOCTYPE svg PUBLIC "-//W3C//DTD SVG 1.1//EN" "http://www.w3.org/Graphics/SVG/1.1/DTD/svg11.dtd">
<!-- Created with Vectornator (http://vectornator.io/) -->
<svg height="100%" stroke-miterlimit="10" style="fill-rule:nonzero;clip-rule:evenodd;stroke-linecap:round;stroke-linejoin:round;" version="1.1" viewBox="0 0 508 159" width="100%" xml:space="preserve" xmlns="http://www.w3.org/2000/svg" xmlns:vectornator="http://vectornator.io" xmlns:xlink="http://www.w3.org/1999/xlink">
<defs/>
<g id="Untitled" vectornator:layerName="Untitled">
<g opacity="1">
<path d="M80.4084 61.1598L138.052 61.1598L138.052 107.014L80.4084 107.014L80.4084 61.1598Z" fill="#ffffff" fill-rule="nonzero" opacity="1" stroke="#23579f" stroke-linecap="butt" stroke-linejoin="round" stroke-width="5"/>
<path d="M99 36.4C75.3 41.7 59.4 64.5 62.9 88.2C64.3 97.2 69.4 108 75.3 114.3L79.7 119L71.1 124L62.5 129L87.5 129C106.1 129 114.1 128.6 118.8 127.5C144.1 121.5 159.8 97.8 154.6 73.2C151.5 58.6 142.8 46.9 130.1 40.5C119.6 35.3 109.9 34 99 36.4ZM117.8 67.9C119.8 69 124.4 72.6 128 75.9L134.5 82L128 88.1C119.8 95.7 114.9 98.4 108.9 98.3C103 98.2 98.1 95.5 90 88L83.5 82L90 76C93.6 72.6 98.1 69.1 100 68C104.7 65.4 112.9 65.4 117.8 67.9Z" fill="#23579f" fill-rule="nonzero" opacity="1" stroke="none"/>
<path d="M98.5544 81.7055C98.5544 76.3992 103.243 72.0975 109.027 72.0975C114.811 72.0975 119.5 76.3992 119.5 81.7055C119.5 87.0119 114.811 91.3135 109.027 91.3135C103.243 91.3135 98.5544 87.0119 98.5544 81.7055Z" fill="#ffebeb" fill-opacity="0" fill-rule="nonzero" opacity="1" stroke="#23579f" stroke-linecap="butt" stroke-linejoin="round" stroke-width="5"/>
<path d="M111.819 78.5922C111.819 78.5758 111.872 78.5624 111.939 78.5624C112.005 78.5624 112.06 78.5758 112.06 78.5922C112.06 78.6088 112.005 78.6221 111.939 78.6221C111.872 78.6221 111.819 78.6088 111.819 78.5922Z" fill="#28292c" fill-rule="nonzero" opacity="0" stroke="#23579f" stroke-linecap="butt" stroke-linejoin="round" stroke-width="3"/>
<path d="M110.594 78.0995C110.594 78.7192 111.19 79.2216 111.926 79.2216C112.662 79.2216 113.259 78.7192 113.259 78.0995C113.259 77.4797 112.662 76.9773 111.926 76.9773C111.19 76.9773 110.594 77.4797 110.594 78.0995Z" fill="#23579f" fill-rule="nonzero" opacity="1" stroke="#23579f" stroke-linecap="butt" stroke-linejoin="round" stroke-width="0.1"/>
<path d="M111.921 77.1001C111.921 77.6405 112.329 78.0787 112.833 78.0787C113.337 78.0787 113.746 77.6405 113.746 77.1001C113.746 76.5596 113.337 76.1214 112.833 76.1214C112.329 76.1214 111.921 76.5596 111.921 77.1001Z" fill="#ffffff" fill-rule="nonzero" opacity="1" stroke="#ffffff" stroke-linecap="butt" stroke-linejoin="round" stroke-width="0.1"/>
<path d="M112.669 77.5608C112.669 77.4863 112.746 77.4259 112.84 77.4259C112.934 77.4259 113.01 77.4863 113.01 77.5608C113.01 77.6353 112.934 77.6957 112.84 77.6957C112.746 77.6957 112.669 77.6353 112.669 77.5608Z" fill="#ff0000" fill-opacity="0" fill-rule="nonzero" opacity="0" stroke="#ffffff" stroke-linecap="butt" stroke-linejoin="round" stroke-width="1"/>
<path d="M111.055 78.5984C111.055 78.6108 111.069 78.6209 111.085 78.6209C111.101 78.6209 111.114 78.6108 111.114 78.5984C111.114 78.586 111.101 78.5759 111.085 78.5759C111.069 78.5759 111.055 78.586 111.055 78.5984Z" fill="#28292c" fill-rule="nonzero" opacity="0" stroke="#23579f" stroke-linecap="butt" stroke-linejoin="round" stroke-width="3"/>
</g>
<g opacity="1">
<g opacity="1">
<clipPath id="ClipPath">
<path d="M179.715 56.1501L438.844 56.1501L438.844 56.1501L438.844 76.6753L438.844 76.6753L179.715 76.6753L179.715 76.6753L179.715 56.1501L179.715 56.1501Z"/>
</clipPath>
<g clip-path="url(#ClipPath)">
<path d="M182.719 75.1501L184.878 75.1501L184.878 66.2731L184.917 66.2731L187.895 73.1091L189.692 73.1091L192.671 66.2731L192.719 66.2731L192.719 75.1501L194.878 75.1501L194.878 60.9118L192.837 60.9118L188.833 70.1892L184.751 60.9118L182.719 60.9118L182.719 75.1501Z" fill="#23579f" fill-rule="nonzero" opacity="1" stroke="none"/>
</g>
</g>
<g opacity="1">
<clipPath id="ClipPath_2">
<path d="M179.715 56.1501L438.844 56.1501L438.844 56.1501L438.844 76.6753L438.844 76.6753L179.715 76.6753L179.715 76.6753L179.715 56.1501L179.715 56.1501Z"/>
</clipPath>
<g clip-path="url(#ClipPath_2)">
<path d="M200.288 75.1501L202.456 75.1501L202.456 62.8356L206.352 62.8356L206.352 60.9118L196.391 60.9118L196.391 62.8356L200.288 62.8356L200.288 75.1501Z" fill="#23579f" fill-rule="nonzero" opacity="1" stroke="none"/>
</g>
</g>
<g opacity="1">
<clipPath id="ClipPath_3">
<path d="M179.715 56.1501L438.844 56.1501L438.844 56.1501L438.844 76.6753L438.844 76.6753L179.715 76.6753L179.715 76.6753L179.715 56.1501L179.715 56.1501Z"/>
</clipPath>
<g clip-path="url(#ClipPath_3)">
<path d="M211.088 75.1501L212.768 75.1501L217.475 60.9118L215.19 60.9118L211.948 71.7517L211.909 71.7517L208.676 60.9118L206.391 60.9118L211.088 75.1501Z" fill="#23579f" fill-rule="nonzero" opacity="1" stroke="none"/>
</g>
</g>
<g opacity="1">
<clipPath id="ClipPath_4">
<path d="M179.715 56.1501L438.844 56.1501L438.844 56.1501L438.844 76.6753L438.844 76.6753L179.715 76.6753L179.715 76.6753L179.715 56.1501L179.715 56.1501Z"/>
</clipPath>
<g clip-path="url(#ClipPath_4)">
<path d="M223.354 70.6286L229.37 70.6286L229.37 68.5876L223.354 68.5876L223.354 70.6286Z" fill="#23579f" fill-rule="nonzero" opacity="1" stroke="none"/>
</g>
</g>
<g opacity="1">
<clipPath id="ClipPath_5">
<path d="M179.715 56.1501L438.844 56.1501L438.844 56.1501L438.844 76.6753L438.844 76.6753L179.715 76.6753L179.715 76.6753L179.715 56.1501L179.715 56.1501Z"/>
</clipPath>
<g clip-path="url(#ClipPath_5)">
<path d="M236.723 75.1501L238.881 75.1501L238.881 66.2731L238.921 66.2731L241.899 73.1091L243.696 73.1091L246.674 66.2731L246.723 66.2731L246.723 75.1501L248.881 75.1501L248.881 60.9118L246.84 60.9118L242.837 70.1892L238.754 60.9118L236.723 60.9118L236.723 75.1501Z" fill="#23579f" fill-rule="nonzero" opacity="1" stroke="none"/>
</g>
</g>
<g opacity="1">
<clipPath id="ClipPath_6">
<path d="M179.715 56.1501L438.844 56.1501L438.844 56.1501L438.844 76.6753L438.844 76.6753L179.715 76.6753L179.715 76.6753L179.715 56.1501L179.715 56.1501Z"/>
</clipPath>
<g clip-path="url(#ClipPath_6)">
<path d="M254.399 70.0524L256.46 63.8317L256.499 63.8317L258.559 70.0524L254.399 70.0524ZM260.278 75.1501L262.553 75.1501L257.378 60.9118L255.571 60.9118L250.395 75.1501L252.68 75.1501L253.774 71.9665L259.174 71.9665L260.278 75.1501Z" fill="#23579f" fill-rule="nonzero" opacity="1" stroke="none"/>
</g>
</g>
<g opacity="1">
<clipPath id="ClipPath_7">
<path d="M179.715 56.1501L438.844 56.1501L438.844 56.1501L438.844 76.6753L438.844 76.6753L179.715 76.6753L179.715 76.6753L179.715 56.1501L179.715 56.1501Z"/>
</clipPath>
<g clip-path="url(#ClipPath_7)">
<path d="M268.335 69.3493L271.235 69.3493L271.235 70.0915C271.222 70.9834 270.942 71.7028 270.395 72.2497C269.848 72.8226 269.155 73.1091 268.315 73.1091C267.807 73.1091 267.371 73.0017 267.006 72.7868C266.635 72.6045 266.336 72.3669 266.108 72.0739C265.828 71.7679 265.643 71.3676 265.551 70.8728C265.447 70.378 265.395 69.4307 265.395 68.031C265.395 66.6312 265.447 65.6774 265.551 65.1696C265.643 64.6879 265.828 64.294 266.108 63.988C266.336 63.695 266.635 63.4509 267.006 63.2556C267.371 63.0668 267.807 62.9659 268.315 62.9528C269.005 62.9659 269.591 63.1644 270.073 63.5485C270.535 63.9522 270.854 64.4405 271.03 65.0134L273.315 65.0134C273.087 63.822 272.54 62.8226 271.674 62.0153C270.809 61.2146 269.689 60.8077 268.315 60.7946C267.195 60.8077 266.261 61.0746 265.512 61.5954C264.751 62.1097 264.197 62.6957 263.852 63.3532C263.637 63.6983 263.478 64.1508 263.374 64.7106C263.276 65.2705 263.227 66.3773 263.227 68.031C263.227 69.6586 263.276 70.7588 263.374 71.3317C263.426 71.6377 263.491 71.8916 263.569 72.0935C263.654 72.2888 263.748 72.4939 263.852 72.7087C264.197 73.3662 264.751 73.9457 265.512 74.447C266.261 74.9678 267.195 75.2412 268.315 75.2673C269.767 75.2412 270.971 74.7497 271.928 73.7927C272.879 72.8291 273.367 71.6345 273.393 70.2087L273.393 67.3083L268.335 67.3083L268.335 69.3493Z" fill="#23579f" fill-rule="nonzero" opacity="1" stroke="none"/>
</g>
</g>
<g opacity="1">
<clipPath id="ClipPath_8">
<path d="M179.715 56.1501L438.844 56.1501L438.844 56.1501L438.844 76.6753L438.844 76.6753L179.715 76.6753L179.715 76.6753L179.715 56.1501L179.715 56.1501Z"/>
</clipPath>
<g clip-path="url(#ClipPath_8)">
<path d="M275.913 75.1501L280.747 75.1501C281.814 75.1501 282.716 74.9157 283.452 74.447C284.194 74.0108 284.773 73.4574 285.19 72.7868C285.346 72.5329 285.48 72.2888 285.59 72.0544C285.695 71.8135 285.773 71.5401 285.825 71.2341C285.935 70.6286 285.991 69.5609 285.991 68.031C285.991 66.5922 285.955 65.5798 285.883 64.9939C285.792 64.4079 285.574 63.848 285.229 63.3142C284.266 61.7256 282.82 60.9248 280.893 60.9118L275.913 60.9118L275.913 75.1501ZM278.071 62.9528L280.649 62.9528C281.743 62.9268 282.589 63.3272 283.188 64.154C283.481 64.486 283.667 64.919 283.745 65.4528C283.803 65.9867 283.833 66.8721 283.833 68.1091C283.833 69.3786 283.803 70.2445 283.745 70.7067C283.68 71.1755 283.527 71.5629 283.286 71.8689C282.739 72.6957 281.86 73.1091 280.649 73.1091L278.071 73.1091L278.071 62.9528Z" fill="#23579f" fill-rule="nonzero" opacity="1" stroke="none"/>
</g>
</g>
<g opacity="1">
<clipPath id="ClipPath_9">
<path d="M179.715 56.1501L438.844 56.1501L438.844 56.1501L438.844 76.6753L438.844 76.6753L179.715 76.6753L179.715 76.6753L179.715 56.1501L179.715 56.1501Z"/>
</clipPath>
<g clip-path="url(#ClipPath_9)">
<path d="M288.51 75.1501L297.602 75.1501L297.602 73.1091L290.669 73.1091L290.669 68.9294L296.587 68.9294L296.587 67.0153L290.669 67.0153L290.669 62.9528L297.602 62.9528L297.602 60.9118L288.51 60.9118L288.51 75.1501Z" fill="#23579f" fill-rule="nonzero" opacity="1" stroke="none"/>
</g>
</g>
<g opacity="1">
<clipPath id="ClipPath_10">
<path d="M179.715 56.1501L438.844 56.1501L438.844 56.1501L438.844 76.6753L438.844 76.6753L179.715 76.6753L179.715 76.6753L179.715 56.1501L179.715 56.1501Z"/>
</clipPath>
<g clip-path="url(#ClipPath_10)">
<path d="M299.633 75.1501L305.629 75.1501C306.749 75.1501 307.684 74.7758 308.432 74.0271C309.187 73.3109 309.572 72.3376 309.585 71.1071C309.585 70.3649 309.399 69.6781 309.028 69.0466C308.631 68.4346 308.045 68.0277 307.27 67.8259L307.27 67.7868C307.68 67.5915 308.025 67.3734 308.305 67.1325C308.585 66.9047 308.8 66.6638 308.95 66.4099C309.243 65.876 309.383 65.3161 309.37 64.7302C309.37 63.5843 309.015 62.6631 308.305 61.9665C307.602 61.2764 306.551 60.9248 305.151 60.9118L299.633 60.9118L299.633 75.1501ZM305.112 68.8317C305.913 68.8448 306.499 69.0564 306.87 69.4665C307.241 69.8832 307.426 70.3845 307.426 70.9704C307.426 71.5433 307.241 72.0381 306.87 72.4548C306.499 72.878 305.913 73.0961 305.112 73.1091L301.792 73.1091L301.792 68.8317L305.112 68.8317ZM304.907 62.8356C305.695 62.8487 306.274 63.0407 306.645 63.4118C307.023 63.809 307.212 64.294 307.212 64.8669C307.212 65.4398 307.023 65.9151 306.645 66.2927C306.274 66.7028 305.695 66.9079 304.907 66.9079L301.792 66.9079L301.792 62.8356L304.907 62.8356Z" fill="#23579f" fill-rule="nonzero" opacity="1" stroke="none"/>
</g>
</g>
<g opacity="1">
<clipPath id="ClipPath_11">
<path d="M179.715 56.1501L438.844 56.1501L438.844 56.1501L438.844 76.6753L438.844 76.6753L179.715 76.6753L179.715 76.6753L179.715 56.1501L179.715 56.1501Z"/>
</clipPath>
<g clip-path="url(#ClipPath_11)">
<path d="M311.567 70.3259C311.58 71.8233 312.075 73.0114 313.051 73.8903C314.008 74.7953 315.2 75.2543 316.626 75.2673C318.077 75.2543 319.279 74.7953 320.229 73.8903C321.173 73.0114 321.658 71.8233 321.684 70.3259L321.684 60.9118L319.526 60.9118L319.526 70.0915C319.513 71.0616 319.24 71.8005 318.706 72.3083C318.159 72.8422 317.465 73.1091 316.626 73.1091C315.786 73.1091 315.099 72.8422 314.565 72.3083C314.018 71.8005 313.738 71.0616 313.725 70.0915L313.725 60.9118L311.567 60.9118L311.567 70.3259Z" fill="#23579f" fill-rule="nonzero" opacity="1" stroke="none"/>
</g>
</g>
<g opacity="1">
<clipPath id="ClipPath_12">
<path d="M179.715 56.1501L438.844 56.1501L438.844 56.1501L438.844 76.6753L438.844 76.6753L179.715 76.6753L179.715 76.6753L179.715 56.1501L179.715 56.1501Z"/>
</clipPath>
<g clip-path="url(#ClipPath_12)">
<path d="M326.587 62.8356L329.965 62.8356C330.656 62.8356 331.183 62.9821 331.547 63.2751C332.01 63.6071 332.247 64.1442 332.26 64.8864C332.26 65.5049 332.062 66.0258 331.665 66.4489C331.261 66.9047 330.656 67.139 329.848 67.1521L326.587 67.1521L326.587 62.8356ZM324.428 75.1501L326.587 75.1501L326.587 69.0661L329.34 69.0661L332.28 75.1501L334.848 75.1501L331.547 68.8317C333.357 68.1351 334.275 66.82 334.301 64.8864C334.262 63.5713 333.79 62.559 332.885 61.8493C332.137 61.2243 331.17 60.9118 329.985 60.9118L324.428 60.9118L324.428 75.1501Z" fill="#23579f" fill-rule="nonzero" opacity="1" stroke="none"/>
</g>
</g>
<g opacity="1">
<clipPath id="ClipPath_13">
<path d="M179.715 56.1501L438.844 56.1501L438.844 56.1501L438.844 76.6753L438.844 76.6753L179.715 76.6753L179.715 76.6753L179.715 56.1501L179.715 56.1501Z"/>
</clipPath>
<g clip-path="url(#ClipPath_13)">
<path d="M341.245 69.3493L344.145 69.3493L344.145 70.0915C344.132 70.9834 343.852 71.7028 343.305 72.2497C342.758 72.8226 342.065 73.1091 341.225 73.1091C340.717 73.1091 340.281 73.0017 339.917 72.7868C339.546 72.6045 339.246 72.3669 339.018 72.0739C338.738 71.7679 338.553 71.3676 338.462 70.8728C338.357 70.378 338.305 69.4307 338.305 68.031C338.305 66.6312 338.357 65.6774 338.462 65.1696C338.553 64.6879 338.738 64.294 339.018 63.988C339.246 63.695 339.546 63.4509 339.917 63.2556C340.281 63.0668 340.717 62.9659 341.225 62.9528C341.915 62.9659 342.501 63.1644 342.983 63.5485C343.445 63.9522 343.764 64.4405 343.94 65.0134L346.225 65.0134C345.997 63.822 345.45 62.8226 344.585 62.0153C343.719 61.2146 342.599 60.8077 341.225 60.7946C340.105 60.8077 339.171 61.0746 338.422 61.5954C337.661 62.1097 337.107 62.6957 336.762 63.3532C336.547 63.6983 336.388 64.1508 336.284 64.7106C336.186 65.2705 336.137 66.3773 336.137 68.031C336.137 69.6586 336.186 70.7588 336.284 71.3317C336.336 71.6377 336.401 71.8916 336.479 72.0935C336.564 72.2888 336.658 72.4939 336.762 72.7087C337.107 73.3662 337.661 73.9457 338.422 74.447C339.171 74.9678 340.105 75.2412 341.225 75.2673C342.677 75.2412 343.881 74.7497 344.838 73.7927C345.789 72.8291 346.277 71.6345 346.303 70.2087L346.303 67.3083L341.245 67.3083L341.245 69.3493Z" fill="#23579f" fill-rule="nonzero" opacity="1" stroke="none"/>
</g>
</g>
<g opacity="1">
<clipPath id="ClipPath_14">
<path d="M179.715 56.1501L438.844 56.1501L438.844 56.1501L438.844 76.6753L438.844 76.6753L179.715 76.6753L179.715 76.6753L179.715 56.1501L179.715 56.1501Z"/>
</clipPath>
<g clip-path="url(#ClipPath_14)">
<path d="M356.03 75.1501L358.198 75.1501L358.198 62.8356L362.094 62.8356L362.094 60.9118L352.133 60.9118L352.133 62.8356L356.03 62.8356L356.03 75.1501Z" fill="#23579f" fill-rule="nonzero" opacity="1" stroke="none"/>
</g>
</g>
<g opacity="1">
<clipPath id="ClipPath_15">
<path d="M179.715 56.1501L438.844 56.1501L438.844 56.1501L438.844 76.6753L438.844 76.6753L179.715 76.6753L179.715 76.6753L179.715 56.1501L179.715 56.1501Z"/>
</clipPath>
<g clip-path="url(#ClipPath_15)">
<path d="M362.768 68.031C362.768 69.6586 362.817 70.7588 362.915 71.3317C362.967 71.6377 363.032 71.8916 363.11 72.0935C363.195 72.2888 363.289 72.4939 363.393 72.7087C363.738 73.3662 364.292 73.9457 365.053 74.447C365.802 74.9678 366.736 75.2412 367.856 75.2673C368.989 75.2412 369.933 74.9678 370.688 74.447C371.437 73.9457 371.977 73.3662 372.309 72.7087C372.55 72.3636 372.716 71.9047 372.807 71.3317C372.892 70.7588 372.934 69.6586 372.934 68.031C372.934 66.3773 372.892 65.2705 372.807 64.7106C372.716 64.1508 372.55 63.6983 372.309 63.3532C371.977 62.6957 371.437 62.1097 370.688 61.5954C369.933 61.0746 368.989 60.8077 367.856 60.7946C366.736 60.8077 365.802 61.0746 365.053 61.5954C364.292 62.1097 363.738 62.6957 363.393 63.3532C363.178 63.6983 363.019 64.1508 362.915 64.7106C362.817 65.2705 362.768 66.3773 362.768 68.031ZM364.936 68.031C364.936 66.6312 364.988 65.6774 365.092 65.1696C365.184 64.6879 365.369 64.294 365.649 63.988C365.877 63.695 366.176 63.4509 366.547 63.2556C366.912 63.0668 367.348 62.9659 367.856 62.9528C368.37 62.9659 368.816 63.0668 369.194 63.2556C369.552 63.4509 369.838 63.695 370.053 63.988C370.333 64.294 370.525 64.6879 370.629 65.1696C370.727 65.6774 370.776 66.6312 370.776 68.031C370.776 69.4307 370.727 70.378 370.629 70.8728C370.525 71.3676 370.333 71.7679 370.053 72.0739C369.838 72.3669 369.552 72.6045 369.194 72.7868C368.816 73.0017 368.37 73.1091 367.856 73.1091C367.348 73.1091 366.912 73.0017 366.547 72.7868C366.176 72.6045 365.877 72.3669 365.649 72.0739C365.369 71.7679 365.184 71.3676 365.092 70.8728C364.988 70.378 364.936 69.4307 364.936 68.031Z" fill="#23579f" fill-rule="nonzero" opacity="1" stroke="none"/>
</g>
</g>
<g opacity="1">
<clipPath id="ClipPath_16">
<path d="M179.715 56.1501L438.844 56.1501L438.844 56.1501L438.844 76.6753L438.844 76.6753L179.715 76.6753L179.715 76.6753L179.715 56.1501L179.715 56.1501Z"/>
</clipPath>
<g clip-path="url(#ClipPath_16)">
<path d="M374.965 68.031C374.965 69.6586 375.014 70.7588 375.112 71.3317C375.164 71.6377 375.229 71.8916 375.307 72.0935C375.392 72.2888 375.486 72.4939 375.59 72.7087C375.935 73.3662 376.489 73.9457 377.251 74.447C377.999 74.9678 378.934 75.2412 380.053 75.2673C381.186 75.2412 382.13 74.9678 382.885 74.447C383.634 73.9457 384.174 73.3662 384.506 72.7087C384.747 72.3636 384.913 71.9047 385.004 71.3317C385.089 70.7588 385.131 69.6586 385.131 68.031C385.131 66.3773 385.089 65.2705 385.004 64.7106C384.913 64.1508 384.747 63.6983 384.506 63.3532C384.174 62.6957 383.634 62.1097 382.885 61.5954C382.13 61.0746 381.186 60.8077 380.053 60.7946C378.934 60.8077 377.999 61.0746 377.251 61.5954C376.489 62.1097 375.935 62.6957 375.59 63.3532C375.376 63.6983 375.216 64.1508 375.112 64.7106C375.014 65.2705 374.965 66.3773 374.965 68.031ZM377.133 68.031C377.133 66.6312 377.185 65.6774 377.29 65.1696C377.381 64.6879 377.566 64.294 377.846 63.988C378.074 63.695 378.374 63.4509 378.745 63.2556C379.109 63.0668 379.546 62.9659 380.053 62.9528C380.568 62.9659 381.014 63.0668 381.391 63.2556C381.749 63.4509 382.036 63.695 382.251 63.988C382.531 64.294 382.723 64.6879 382.827 65.1696C382.924 65.6774 382.973 66.6312 382.973 68.031C382.973 69.4307 382.924 70.378 382.827 70.8728C382.723 71.3676 382.531 71.7679 382.251 72.0739C382.036 72.3669 381.749 72.6045 381.391 72.7868C381.014 73.0017 380.568 73.1091 380.053 73.1091C379.546 73.1091 379.109 73.0017 378.745 72.7868C378.374 72.6045 378.074 72.3669 377.846 72.0739C377.566 71.7679 377.381 71.3676 377.29 70.8728C377.185 70.378 377.133 69.4307 377.133 68.031Z" fill="#23579f" fill-rule="nonzero" opacity="1" stroke="none"/>
</g>
</g>
<g opacity="1">
<clipPath id="ClipPath_17">
<path d="M179.715 56.1501L438.844 56.1501L438.844 56.1501L438.844 76.6753L438.844 76.6753L179.715 76.6753L179.715 76.6753L179.715 56.1501L179.715 56.1501Z"/>
</clipPath>
<g clip-path="url(#ClipPath_17)">
<path d="M387.651 75.1501L396.743 75.1501L396.743 73.1091L389.809 73.1091L389.809 60.9118L387.651 60.9118L387.651 75.1501Z" fill="#23579f" fill-rule="nonzero" opacity="1" stroke="none"/>
</g>
</g>
<g opacity="1">
<clipPath id="ClipPath_18">
<path d="M179.715 56.1501L438.844 56.1501L438.844 56.1501L438.844 76.6753L438.844 76.6753L179.715 76.6753L179.715 76.6753L179.715 56.1501L179.715 56.1501Z"/>
</clipPath>
<g clip-path="url(#ClipPath_18)">
<path d="M403.569 75.1501L405.727 75.1501L405.727 69.0661L411.645 69.0661L411.645 67.1521L405.727 67.1521L405.727 62.9528L412.661 62.9528L412.661 60.9118L403.569 60.9118L403.569 75.1501Z" fill="#23579f" fill-rule="nonzero" opacity="1" stroke="none"/>
</g>
</g>
<g opacity="1">
<clipPath id="ClipPath_19">
<path d="M179.715 56.1501L438.844 56.1501L438.844 56.1501L438.844 76.6753L438.844 76.6753L179.715 76.6753L179.715 76.6753L179.715 56.1501L179.715 56.1501Z"/>
</clipPath>
<g clip-path="url(#ClipPath_19)">
<path d="M413.823 68.031C413.823 69.6586 413.872 70.7588 413.969 71.3317C414.021 71.6377 414.087 71.8916 414.165 72.0935C414.249 72.2888 414.344 72.4939 414.448 72.7087C414.793 73.3662 415.346 73.9457 416.108 74.447C416.857 74.9678 417.791 75.2412 418.911 75.2673C420.044 75.2412 420.988 74.9678 421.743 74.447C422.491 73.9457 423.032 73.3662 423.364 72.7087C423.605 72.3636 423.771 71.9047 423.862 71.3317C423.947 70.7588 423.989 69.6586 423.989 68.031C423.989 66.3773 423.947 65.2705 423.862 64.7106C423.771 64.1508 423.605 63.6983 423.364 63.3532C423.032 62.6957 422.491 62.1097 421.743 61.5954C420.988 61.0746 420.044 60.8077 418.911 60.7946C417.791 60.8077 416.857 61.0746 416.108 61.5954C415.346 62.1097 414.793 62.6957 414.448 63.3532C414.233 63.6983 414.074 64.1508 413.969 64.7106C413.872 65.2705 413.823 66.3773 413.823 68.031ZM415.991 68.031C415.991 66.6312 416.043 65.6774 416.147 65.1696C416.238 64.6879 416.424 64.294 416.704 63.988C416.932 63.695 417.231 63.4509 417.602 63.2556C417.967 63.0668 418.403 62.9659 418.911 62.9528C419.425 62.9659 419.871 63.0668 420.249 63.2556C420.607 63.4509 420.893 63.695 421.108 63.988C421.388 64.294 421.58 64.6879 421.684 65.1696C421.782 65.6774 421.831 66.6312 421.831 68.031C421.831 69.4307 421.782 70.378 421.684 70.8728C421.58 71.3676 421.388 71.7679 421.108 72.0739C420.893 72.3669 420.607 72.6045 420.249 72.7868C419.871 73.0017 419.425 73.1091 418.911 73.1091C418.403 73.1091 417.967 73.0017 417.602 72.7868C417.231 72.6045 416.932 72.3669 416.704 72.0739C416.424 71.7679 416.238 71.3676 416.147 70.8728C416.043 70.378 415.991 69.4307 415.991 68.031Z" fill="#23579f" fill-rule="nonzero" opacity="1" stroke="none"/>
</g>
</g>
<g opacity="1">
<clipPath id="ClipPath_20">
<path d="M179.715 56.1501L438.844 56.1501L438.844 56.1501L438.844 76.6753L438.844 76.6753L179.715 76.6753L179.715 76.6753L179.715 56.1501L179.715 56.1501Z"/>
</clipPath>
<g clip-path="url(#ClipPath_20)">
<path d="M428.667 62.8356L432.046 62.8356C432.736 62.8356 433.263 62.9821 433.628 63.2751C434.09 63.6071 434.327 64.1442 434.34 64.8864C434.34 65.5049 434.142 66.0258 433.745 66.4489C433.341 66.9047 432.736 67.139 431.928 67.1521L428.667 67.1521L428.667 62.8356ZM426.508 75.1501L428.667 75.1501L428.667 69.0661L431.421 69.0661L434.36 75.1501L436.928 75.1501L433.628 68.8317C435.437 68.1351 436.355 66.82 436.381 64.8864C436.342 63.5713 435.87 62.559 434.965 61.8493C434.217 61.2243 433.25 60.9118 432.065 60.9118L426.508 60.9118L426.508 75.1501Z" fill="#23579f" fill-rule="nonzero" opacity="1" stroke="none"/>
</g>
</g>
</g>
<g opacity="1">
<g opacity="1">
<clipPath id="ClipPath_21">
<path d="M180.905 79.5L455.561 79.5L455.561 79.5L455.561 113.182L455.561 113.182L180.905 113.182L180.905 113.182L180.905 79.5L180.905 79.5Z"/>
</clipPath>
<g clip-path="url(#ClipPath_21)">
<path d="M189.032 105.5L191.392 105.5L198.005 85.4952L194.795 85.4952L190.239 100.725L190.184 100.725L185.643 85.4952L182.432 85.4952L189.032 105.5Z" fill="#23579f" fill-rule="nonzero" opacity="1" stroke="none"/>
</g>
</g>
<g opacity="1">
<clipPath id="ClipPath_22">
<path d="M180.905 79.5L455.561 79.5L455.561 79.5L455.561 113.182L455.561 113.182L180.905 113.182L180.905 113.182L180.905 79.5L180.905 79.5Z"/>
</clipPath>
<g clip-path="url(#ClipPath_22)">
<path d="M200.146 105.5L203.178 105.5L203.178 85.4952L200.146 85.4952L200.146 105.5Z" fill="#23579f" fill-rule="nonzero" opacity="1" stroke="none"/>
</g>
</g>
<g opacity="1">
<clipPath id="ClipPath_23">
<path d="M180.905 79.5L455.561 79.5L455.561 79.5L455.561 113.182L455.561 113.182L180.905 113.182L180.905 113.182L180.905 79.5L180.905 79.5Z"/>
</clipPath>
<g clip-path="url(#ClipPath_23)">
<path d="M207.39 105.5L214.182 105.5C215.682 105.5 216.949 105.171 217.983 104.512C219.025 103.899 219.839 103.122 220.425 102.18C220.644 101.823 220.832 101.48 220.987 101.151C221.134 100.812 221.244 100.428 221.317 99.998C221.472 99.1473 221.55 97.6472 221.55 95.4976C221.55 93.4761 221.5 92.0537 221.399 91.2305C221.271 90.4072 220.965 89.6206 220.48 88.8705C219.126 86.6386 217.095 85.5135 214.388 85.4952L207.39 85.4952L207.39 105.5ZM210.422 88.3628L214.045 88.3628C215.581 88.3263 216.771 88.8888 217.612 90.0505C218.024 90.517 218.284 91.1253 218.394 91.8753C218.477 92.6254 218.518 93.8694 218.518 95.6074C218.518 97.3911 218.477 98.6076 218.394 99.2571C218.303 99.9157 218.088 100.46 217.749 100.89C216.981 102.052 215.746 102.632 214.045 102.632L210.422 102.632L210.422 88.3628Z" fill="#23579f" fill-rule="nonzero" opacity="1" stroke="none"/>
</g>
</g>
<g opacity="1">
<clipPath id="ClipPath_24">
<path d="M180.905 79.5L455.561 79.5L455.561 79.5L455.561 113.182L455.561 113.182L180.905 113.182L180.905 113.182L180.905 79.5L180.905 79.5Z"/>
</clipPath>
<g clip-path="url(#ClipPath_24)">
<path d="M225.09 105.5L237.864 105.5L237.864 102.632L228.122 102.632L228.122 96.7599L236.437 96.7599L236.437 94.0707L228.122 94.0707L228.122 88.3628L237.864 88.3628L237.864 85.4952L225.09 85.4952L225.09 105.5Z" fill="#23579f" fill-rule="nonzero" opacity="1" stroke="none"/>
</g>
</g>
<g opacity="1">
<clipPath id="ClipPath_25">
<path d="M180.905 79.5L455.561 79.5L455.561 79.5L455.561 113.182L455.561 113.182L180.905 113.182L180.905 113.182L180.905 79.5L180.905 79.5Z"/>
</clipPath>
<g clip-path="url(#ClipPath_25)">
<path d="M240.032 95.4976C240.032 97.7844 240.1 99.3303 240.238 100.135C240.311 100.565 240.402 100.922 240.512 101.205C240.631 101.48 240.764 101.768 240.91 102.07C241.395 102.994 242.172 103.808 243.242 104.512C244.294 105.244 245.607 105.628 247.18 105.665C248.772 105.628 250.098 105.244 251.159 104.512C252.211 103.808 252.97 102.994 253.437 102.07C253.775 101.585 254.009 100.94 254.137 100.135C254.256 99.3303 254.315 97.7844 254.315 95.4976C254.315 93.1742 254.256 91.6192 254.137 90.8326C254.009 90.0459 253.775 89.4102 253.437 88.9254C252.97 88.0015 252.211 87.1783 251.159 86.4557C250.098 85.7239 248.772 85.3489 247.18 85.3306C245.607 85.3489 244.294 85.7239 243.242 86.4557C242.172 87.1783 241.395 88.0015 240.91 88.9254C240.608 89.4102 240.384 90.0459 240.238 90.8326C240.1 91.6192 240.032 93.1742 240.032 95.4976ZM243.078 95.4976C243.078 93.531 243.151 92.1909 243.297 91.4774C243.425 90.8006 243.686 90.2472 244.079 89.8172C244.4 89.4056 244.82 89.0626 245.342 88.7882C245.854 88.5229 246.467 88.3811 247.18 88.3628C247.903 88.3811 248.529 88.5229 249.06 88.7882C249.563 89.0626 249.966 89.4056 250.267 89.8172C250.661 90.2472 250.931 90.8006 251.077 91.4774C251.214 92.1909 251.283 93.531 251.283 95.4976C251.283 97.4642 251.214 98.7951 251.077 99.4903C250.931 100.186 250.661 100.748 250.267 101.178C249.966 101.59 249.563 101.923 249.06 102.18C248.529 102.481 247.903 102.632 247.18 102.632C246.467 102.632 245.854 102.481 245.342 102.18C244.82 101.923 244.4 101.59 244.079 101.178C243.686 100.748 243.425 100.186 243.297 99.4903C243.151 98.7951 243.078 97.4642 243.078 95.4976Z" fill="#23579f" fill-rule="nonzero" opacity="1" stroke="none"/>
</g>
</g>
<g opacity="1">
<clipPath id="ClipPath_26">
<path d="M180.905 79.5L455.561 79.5L455.561 79.5L455.561 113.182L455.561 113.182L180.905 113.182L180.905 113.182L180.905 79.5L180.905 79.5Z"/>
</clipPath>
<g clip-path="url(#ClipPath_26)">
<path d="M268.132 99.902C267.29 101.722 266.019 102.632 264.317 102.632C263.604 102.632 262.991 102.481 262.479 102.18C261.957 101.923 261.537 101.59 261.217 101.178C260.823 100.748 260.562 100.186 260.434 99.4903C260.288 98.7951 260.215 97.4642 260.215 95.4976C260.215 93.531 260.288 92.1909 260.434 91.4774C260.562 90.8006 260.823 90.2472 261.217 89.8172C261.537 89.4056 261.957 89.0626 262.479 88.7882C262.991 88.5229 263.604 88.3811 264.317 88.3628C265.287 88.3811 266.11 88.6601 266.787 89.1998C267.437 89.7669 267.885 90.453 268.132 91.2579L271.342 91.2579C271.022 89.584 270.254 88.1799 269.037 87.0457C267.821 85.9206 266.247 85.3489 264.317 85.3306C262.744 85.3489 261.431 85.7239 260.38 86.4557C259.309 87.1783 258.532 88.0015 258.047 88.9254C257.745 89.4102 257.521 90.0459 257.375 90.8326C257.238 91.6192 257.169 93.1742 257.169 95.4976C257.169 97.7844 257.238 99.3303 257.375 100.135C257.448 100.565 257.539 100.922 257.649 101.205C257.768 101.48 257.901 101.768 258.047 102.07C258.532 102.994 259.309 103.808 260.38 104.512C261.431 105.244 262.744 105.628 264.317 105.665C266.055 105.665 267.56 105.171 268.832 104.183C270.066 103.186 270.903 101.759 271.342 99.902L268.132 99.902Z" fill="#23579f" fill-rule="nonzero" opacity="1" stroke="none"/>
</g>
</g>
<g opacity="1">
<clipPath id="ClipPath_27">
<path d="M180.905 79.5L455.561 79.5L455.561 79.5L455.561 113.182L455.561 113.182L180.905 113.182L180.905 113.182L180.905 79.5L180.905 79.5Z"/>
</clipPath>
<g clip-path="url(#ClipPath_27)">
<path d="M272.797 95.4976C272.797 97.7844 272.865 99.3303 273.003 100.135C273.076 100.565 273.167 100.922 273.277 101.205C273.396 101.48 273.529 101.768 273.675 102.07C274.16 102.994 274.937 103.808 276.007 104.512C277.059 105.244 278.372 105.628 279.945 105.665C281.537 105.628 282.863 105.244 283.924 104.512C284.976 103.808 285.735 102.994 286.202 102.07C286.54 101.585 286.774 100.94 286.902 100.135C287.021 99.3303 287.08 97.7844 287.08 95.4976C287.08 93.1742 287.021 91.6192 286.902 90.8326C286.774 90.0459 286.54 89.4102 286.202 88.9254C285.735 88.0015 284.976 87.1783 283.924 86.4557C282.863 85.7239 281.537 85.3489 279.945 85.3306C278.372 85.3489 277.059 85.7239 276.007 86.4557C274.937 87.1783 274.16 88.0015 273.675 88.9254C273.373 89.4102 273.149 90.0459 273.003 90.8326C272.865 91.6192 272.797 93.1742 272.797 95.4976ZM275.843 95.4976C275.843 93.531 275.916 92.1909 276.062 91.4774C276.19 90.8006 276.451 90.2472 276.844 89.8172C277.165 89.4056 277.585 89.0626 278.107 88.7882C278.619 88.5229 279.232 88.3811 279.945 88.3628C280.668 88.3811 281.294 88.5229 281.825 88.7882C282.328 89.0626 282.731 89.4056 283.032 89.8172C283.426 90.2472 283.696 90.8006 283.842 91.4774C283.979 92.1909 284.048 93.531 284.048 95.4976C284.048 97.4642 283.979 98.7951 283.842 99.4903C283.696 100.186 283.426 100.748 283.032 101.178C282.731 101.59 282.328 101.923 281.825 102.18C281.294 102.481 280.668 102.632 279.945 102.632C279.232 102.632 278.619 102.481 278.107 102.18C277.585 101.923 277.165 101.59 276.844 101.178C276.451 100.748 276.19 100.186 276.062 99.4903C275.916 98.7951 275.843 97.4642 275.843 95.4976Z" fill="#23579f" fill-rule="nonzero" opacity="1" stroke="none"/>
</g>
</g>
<g opacity="1">
<clipPath id="ClipPath_28">
<path d="M180.905 79.5L455.561 79.5L455.561 79.5L455.561 113.182L455.561 113.182L180.905 113.182L180.905 113.182L180.905 79.5L180.905 79.5Z"/>
</clipPath>
<g clip-path="url(#ClipPath_28)">
<path d="M290.62 105.5L293.652 105.5L293.652 91.2854L293.707 91.2854L302.749 105.5L305.617 105.5L305.617 85.4952L302.584 85.4952L302.584 99.7099L302.53 99.7099L293.474 85.4952L290.62 85.4952L290.62 105.5Z" fill="#23579f" fill-rule="nonzero" opacity="1" stroke="none"/>
</g>
</g>
<g opacity="1">
<clipPath id="ClipPath_29">
<path d="M180.905 79.5L455.561 79.5L455.561 79.5L455.561 113.182L455.561 113.182L180.905 113.182L180.905 113.182L180.905 79.5L180.905 79.5Z"/>
</clipPath>
<g clip-path="url(#ClipPath_29)">
<path d="M309.843 105.5L312.875 105.5L312.875 96.952L321.19 96.952L321.19 94.2627L312.875 94.2627L312.875 88.3628L322.617 88.3628L322.617 85.4952L309.843 85.4952L309.843 105.5Z" fill="#23579f" fill-rule="nonzero" opacity="1" stroke="none"/>
</g>
</g>
<g opacity="1">
<clipPath id="ClipPath_30">
<path d="M180.905 79.5L455.561 79.5L455.561 79.5L455.561 113.182L455.561 113.182L180.905 113.182L180.905 113.182L180.905 79.5L180.905 79.5Z"/>
</clipPath>
<g clip-path="url(#ClipPath_30)">
<path d="M324.935 105.5L337.709 105.5L337.709 102.632L327.968 102.632L327.968 96.7599L336.282 96.7599L336.282 94.0707L327.968 94.0707L327.968 88.3628L337.709 88.3628L337.709 85.4952L324.935 85.4952L324.935 105.5Z" fill="#23579f" fill-rule="nonzero" opacity="1" stroke="none"/>
</g>
</g>
<g opacity="1">
<clipPath id="ClipPath_31">
<path d="M180.905 79.5L455.561 79.5L455.561 79.5L455.561 113.182L455.561 113.182L180.905 113.182L180.905 113.182L180.905 79.5L180.905 79.5Z"/>
</clipPath>
<g clip-path="url(#ClipPath_31)">
<path d="M343.596 88.1982L348.343 88.1982C349.313 88.1982 350.053 88.404 350.566 88.8156C351.215 89.2821 351.549 90.0368 351.567 91.0795C351.567 91.9485 351.288 92.6803 350.73 93.2749C350.163 93.9152 349.313 94.2444 348.178 94.2627L343.596 94.2627L343.596 88.1982ZM340.563 105.5L343.596 105.5L343.596 96.952L347.465 96.952L351.595 105.5L355.203 105.5L350.566 96.6227C353.109 95.644 354.398 93.7962 354.435 91.0795C354.38 89.2318 353.717 87.8094 352.445 86.8124C351.394 85.9343 350.035 85.4952 348.37 85.4952L340.563 85.4952L340.563 105.5Z" fill="#23579f" fill-rule="nonzero" opacity="1" stroke="none"/>
</g>
</g>
<g opacity="1">
<clipPath id="ClipPath_32">
<path d="M180.905 79.5L455.561 79.5L455.561 79.5L455.561 113.182L455.561 113.182L180.905 113.182L180.905 113.182L180.905 79.5L180.905 79.5Z"/>
</clipPath>
<g clip-path="url(#ClipPath_32)">
<path d="M357.701 105.5L370.474 105.5L370.474 102.632L360.733 102.632L360.733 96.7599L369.048 96.7599L369.048 94.0707L360.733 94.0707L360.733 88.3628L370.474 88.3628L370.474 85.4952L357.701 85.4952L357.701 105.5Z" fill="#23579f" fill-rule="nonzero" opacity="1" stroke="none"/>
</g>
</g>
<g opacity="1">
<clipPath id="ClipPath_33">
<path d="M180.905 79.5L455.561 79.5L455.561 79.5L455.561 113.182L455.561 113.182L180.905 113.182L180.905 113.182L180.905 79.5L180.905 79.5Z"/>
</clipPath>
<g clip-path="url(#ClipPath_33)">
<path d="M373.328 105.5L376.361 105.5L376.361 91.2854L376.416 91.2854L385.457 105.5L388.325 105.5L388.325 85.4952L385.293 85.4952L385.293 99.7099L385.238 99.7099L376.182 85.4952L373.328 85.4952L373.328 105.5Z" fill="#23579f" fill-rule="nonzero" opacity="1" stroke="none"/>
</g>
</g>
<g opacity="1">
<clipPath id="ClipPath_34">
<path d="M180.905 79.5L455.561 79.5L455.561 79.5L455.561 113.182L455.561 113.182L180.905 113.182L180.905 113.182L180.905 79.5L180.905 79.5Z"/>
</clipPath>
<g clip-path="url(#ClipPath_34)">
<path d="M402.828 99.902C401.986 101.722 400.715 102.632 399.014 102.632C398.3 102.632 397.687 102.481 397.175 102.18C396.654 101.923 396.233 101.59 395.913 101.178C395.519 100.748 395.259 100.186 395.131 99.4903C394.984 98.7951 394.911 97.4642 394.911 95.4976C394.911 93.531 394.984 92.1909 395.131 91.4774C395.259 90.8006 395.519 90.2472 395.913 89.8172C396.233 89.4056 396.654 89.0626 397.175 88.7882C397.687 88.5229 398.3 88.3811 399.014 88.3628C399.983 88.3811 400.806 88.6601 401.483 89.1998C402.133 89.7669 402.581 90.453 402.828 91.2579L406.039 91.2579C405.718 89.584 404.95 88.1799 403.733 87.0457C402.517 85.9206 400.944 85.3489 399.014 85.3306C397.44 85.3489 396.128 85.7239 395.076 86.4557C394.005 87.1783 393.228 88.0015 392.743 88.9254C392.441 89.4102 392.217 90.0459 392.071 90.8326C391.934 91.6192 391.865 93.1742 391.865 95.4976C391.865 97.7844 391.934 99.3303 392.071 100.135C392.144 100.565 392.236 100.922 392.345 101.205C392.464 101.48 392.597 101.768 392.743 102.07C393.228 102.994 394.005 103.808 395.076 104.512C396.128 105.244 397.44 105.628 399.014 105.665C400.751 105.665 402.256 105.171 403.528 104.183C404.763 103.186 405.599 101.759 406.039 99.902L402.828 99.902Z" fill="#23579f" fill-rule="nonzero" opacity="1" stroke="none"/>
</g>
</g>
<g opacity="1">
<clipPath id="ClipPath_35">
<path d="M180.905 79.5L455.561 79.5L455.561 79.5L455.561 113.182L455.561 113.182L180.905 113.182L180.905 113.182L180.905 79.5L180.905 79.5Z"/>
</clipPath>
<g clip-path="url(#ClipPath_35)">
<path d="M408.179 105.5L420.953 105.5L420.953 102.632L411.211 102.632L411.211 96.7599L419.526 96.7599L419.526 94.0707L411.211 94.0707L411.211 88.3628L420.953 88.3628L420.953 85.4952L408.179 85.4952L408.179 105.5Z" fill="#23579f" fill-rule="nonzero" opacity="1" stroke="none"/>
</g>
</g>
<g opacity="1">
<clipPath id="ClipPath_36">
<path d="M180.905 79.5L455.561 79.5L455.561 79.5L455.561 113.182L455.561 113.182L180.905 113.182L180.905 113.182L180.905 79.5L180.905 79.5Z"/>
</clipPath>
<g clip-path="url(#ClipPath_36)">
<path d="M424.054 100.643L422.064 102.921C424.196 104.75 426.743 105.665 429.707 105.665C434.289 105.61 436.631 103.671 436.732 99.8471C436.732 98.4293 436.288 97.1853 435.401 96.115C434.504 95.0265 433.119 94.3542 431.243 94.0981C430.292 93.9792 429.542 93.874 428.993 93.7825C428.005 93.5996 427.287 93.2703 426.839 92.7946C426.391 92.3281 426.167 91.8067 426.167 91.2305C426.185 90.27 426.519 89.5474 427.168 89.0626C427.79 88.5961 428.568 88.3628 429.501 88.3628C431.303 88.3994 432.954 88.9117 434.454 89.8996L436.142 87.4024C434.303 86.0761 432.14 85.3854 429.652 85.3306C427.585 85.3489 425.988 85.8885 424.863 86.9496C423.702 88.0198 423.121 89.4285 423.121 91.1756C423.121 92.63 423.583 93.8648 424.507 94.8802C425.403 95.8681 426.711 96.5038 428.431 96.7874C429.391 96.9246 430.274 97.048 431.079 97.1578C432.835 97.4597 433.704 98.3561 433.686 99.8471C433.649 101.667 432.332 102.596 429.734 102.632C427.539 102.614 425.645 101.951 424.054 100.643Z" fill="#23579f" fill-rule="nonzero" opacity="1" stroke="none"/>
</g>
</g>
</g>
</g>
</svg>
